# xmcd
#
# Track frame offsets:
#	150
#	15959
#	32465
#	47816
#	63757
#	80752
#	97118
#	115702
#	131239
#	149520
#	165347
#	181122
#	199004
#	212734
#	242766
#
# Disc length: 4440 seconds
#
# Revision: 2
# Processed by: cddbd v1.5.1PL0 Copyright (c) Steve Scherf et al.
# Submitted via: dBpowerAMP V4.0
#
DISCID=c611560f
DTITLE=Sam - Being Under The Influence
DYEAR=2003
DGENRE=Rap
TTITLE0=Cold Beer
TTITLE1=Mr President
TTITLE2=Sunday
TTITLE3=Bit Tits
TTITLE4=Who's That?
TTITLE5=Club Amnesia
TTITLE6=She's Not
TTITLE7=I Do
TTITLE8=Spectator Game
TTITLE9=Alright
TTITLE10=Stop!
TTITLE11=Last Call (featuring Timbuktu)
TTITLE12=Brainwashed
TTITLE13=Time
TTITLE14=DATA
EXTD=
EXTT0=
EXTT1=
EXTT2=
EXTT3=
EXTT4=
EXTT5=
EXTT6=
EXTT7=
EXTT8=
EXTT9=
EXTT10=
EXTT11=
EXTT12=
EXTT13=
EXTT14=
PLAYORDER=
